<svg width="1066" height="719" viewBox="0 0 1066 719" fill="none" xmlns="http://www.w3.org/2000/svg">
<path d="M748.459 90.3302C745.896 89.9152 741.176 89.9591 738.056 90.4572C730.96 91.6613 717.721 96.9492 710.17 101.634C707.008 103.569 704.277 105.139 704.049 105C703.897 104.907 703.787 103.378 703.968 101.714C704.245 97.4981 702.624 89.724 700.951 86.8243C700.106 85.4737 697.876 83.487 695.9 82.2815C692.631 80.2876 691.837 80.221 687.215 81.4728C681.001 83.111 675.915 87.0032 671.142 93.8012C664.796 102.667 665.822 102.353 658.22 97.7159C648.718 91.9198 641.198 90.5691 635.339 93.6767C629.742 96.5263 628.22 101.757 630.756 109.568C631.593 111.958 633.49 115.516 635.125 117.453C638.272 121.356 653.468 133.549 661.585 138.709C678.351 149.353 740.181 185.293 743.458 186.248C748.44 187.826 758.843 185.819 764.583 182.222C769.433 179.229 774.421 172.249 774.744 167.958C775.403 157.815 768.615 150.647 752.197 144.391C748.131 142.85 744.706 141.283 744.571 140.992C744.558 140.671 746.807 138.18 749.639 135.419C760.013 125.251 765.252 113.414 763.369 104.018C761.795 96.1679 757.2 91.9033 748.459 90.3302ZM756.841 102.751C760.619 110.066 755.38 121.903 743.364 133.053C737.578 138.606 737.038 139.32 737.051 141.521C737.239 144.976 737.771 145.3 751.402 150.483C759.459 153.518 761.376 154.479 764.484 157.419C768.746 161.376 769.909 165.112 768.378 169.503C766.645 174.396 762.724 177.747 756.324 179.689C745.99 182.781 749.034 184.116 707.255 158.736C686.912 146.432 664.956 133.353 658.356 129.64C644.926 122.075 640.724 118.363 637.082 111.339C635.877 109.038 635.019 105.487 635.187 103.502C635.321 100.034 635.46 99.8054 637.959 98.6154C642.497 96.4767 647.589 97.7037 656.711 103.268C662.564 106.838 665.258 108.064 666.284 107.75C667.111 107.42 670.239 104.003 673.218 99.9739C682.075 88.3599 688.782 84.2037 693.875 87.3104C697.22 89.3506 698.968 98.4551 697.548 106.254C696.668 111.459 696.736 112.544 698.332 113.518C699.928 114.492 701.537 113.907 709.333 109.162C720.92 102.136 724.537 100.48 734.243 97.7354C746.029 94.4853 753.41 96.0643 756.841 102.751Z" fill="url(#paint0_linear_493_1269)"/>
<path d="M685.792 162.974C681.536 164.137 674.31 168.289 673.15 170.192C671.896 172.246 674.084 173.789 677.221 173.093C684.014 171.703 692.404 165.129 690.482 162.808C690.089 162.255 687.966 162.317 685.792 162.974Z" fill="url(#paint1_linear_493_1269)"/>
<path d="M714.202 182.913C713.054 183.257 710.246 184.781 707.76 186.292C699.61 191.447 699.392 195.908 707.514 192.51C715.589 189.188 721.505 180.687 714.202 182.913Z" fill="url(#paint2_linear_493_1269)"/>
<path d="M645.32 144.342C642.352 144.933 636.337 148.468 635.316 150.142C634.341 151.739 635.309 153.06 637.492 153.243C641.828 153.487 651.569 146.066 648.985 144.49C648.377 144.119 646.743 144.062 645.32 144.342Z" fill="url(#paint3_linear_493_1269)"/>
<path d="M675.341 191.051C672.554 191.857 668.662 193.45 666.683 194.643C663.766 196.518 663.319 197.081 663.767 198.398C664.498 200.619 667.306 200.974 671.777 199.63C676.049 198.269 680.936 194.36 681.412 192.04C681.842 189.797 680.896 189.637 675.341 191.051Z" fill="url(#paint4_linear_493_1269)"/>
<path d="M640.066 170.055C638.647 169.816 632.632 173.351 631.564 175.101C631.193 175.709 631.324 176.52 631.856 176.845C633.681 177.958 636.467 177.152 639.603 174.575C643.169 171.635 643.3 170.567 640.066 170.055Z" fill="url(#paint5_linear_493_1269)"/>
<path d="M368.602 117.878C338.91 123.276 332.803 144.931 355.153 165.677C370.226 179.594 395.825 192.145 415.057 195.007C422.334 196.047 433.119 195.462 438.577 193.706C446.633 191.17 451.636 184.536 450.467 178.033C448.647 168.213 436.043 158.523 419.345 154.231C408.885 151.565 392.057 151.305 391.212 153.841C390.888 154.816 392.187 155.012 403.102 155.857C414.082 156.702 422.269 158.783 430.39 162.75C440.461 167.693 446.308 174.196 446.308 180.439C446.308 187.073 437.472 191.69 424.608 191.69C403.362 191.69 374.125 178.618 356.972 161.45C348.851 153.321 345.992 148.248 345.992 141.615C345.927 138.103 346.252 136.867 347.746 134.266C356.323 119.634 387.899 117.228 424.868 128.413C445.074 134.461 459.758 140.639 471.907 148.053C480.484 153.321 487.241 156.052 482.888 152.475C479.379 149.549 463.461 139.794 457.029 136.607C440.591 128.413 415.512 120.544 397.515 117.878C389.263 116.707 375.034 116.707 368.602 117.878Z" fill="url(#paint6_linear_493_1269)"/>
<path d="M388.809 139.729C383.546 140.51 378.478 143.111 376.854 145.777C374.84 149.029 375.035 153.646 377.374 157.288C381.532 163.921 393.552 170.945 406.156 174.131C412.263 175.692 422.529 176.603 423.179 175.562C423.828 174.522 422.919 174.196 417.331 173.416C402.063 171.335 382.117 160.54 379.972 153.256C378.868 149.679 379.972 147.663 384.196 145.582C386.924 144.216 388.549 143.956 395.891 143.696C405.052 143.371 410.574 144.151 422.269 147.208C436.823 151.045 454.04 158.589 465.41 166.132C473.142 171.205 482.238 180.114 484.902 185.122C488.41 191.69 487.111 198.063 481.263 203.071C469.504 213.151 445.399 215.817 416.357 210.159C401.673 207.298 396.93 205.607 370.422 193.641C367.043 192.145 364.184 191.105 363.989 191.3C363.015 192.21 364.899 193.901 371.006 197.478C383.676 205.022 400.504 211.135 416.681 214.061C441.566 218.679 461.902 217.508 475.871 210.615C482.108 207.493 486.006 204.307 488.41 200.274C489.905 197.673 490.165 196.503 490.165 192.341C490.165 188.243 489.84 186.813 488.215 183.561C485.552 178.228 475.741 168.474 467.814 163.206C443.775 147.338 407.975 136.673 388.809 139.729Z" fill="url(#paint7_linear_493_1269)"/>
<path d="M332.283 170.944C331.373 172.31 332.738 177.513 335.207 182.455C339.105 190.194 347.551 199.624 347.551 196.177C347.551 195.722 345.472 192.21 342.938 188.308C340.405 184.471 337.221 178.813 335.792 175.757C334.362 172.7 333.063 170.229 332.933 170.229C332.803 170.229 332.478 170.554 332.283 170.944Z" fill="url(#paint8_linear_493_1269)"/>
<path d="M505.108 185.187C504.913 185.512 505.238 187.463 505.823 189.414C506.797 192.796 506.797 193.316 505.758 196.438C505.173 198.323 503.808 201.315 502.769 203.136C500.69 206.843 500.365 208.599 501.859 208.599C503.029 208.599 506.342 204.176 508.421 199.819C510.63 195.202 510.501 191.43 508.032 187.593C506.017 184.342 505.758 184.146 505.108 185.187Z" fill="url(#paint9_linear_493_1269)"/>
<path d="M768.132 252.115C767.05 252.804 762.809 256.075 758.761 259.339L751.361 265.258L746.282 263.157C739.423 260.337 729.245 257.438 726.388 257.537C724.895 257.589 723.677 258.087 722.927 258.959C721.179 261.037 722.687 263.262 732.311 272.688C737.091 277.402 740.877 281.565 740.763 282.024C740.646 282.419 737.998 284.789 734.9 287.304C731.802 289.819 728.275 293.066 727.023 294.476C724.772 297.027 724.772 297.027 724.64 304.45C724.413 316.626 720.003 331.876 713.61 342.445C705.068 356.667 689.817 372.36 672.817 384.534C665.144 390.072 663.201 392.157 663.981 394.017C664.971 396.325 671.918 394.196 690.097 386.015C703.218 380.093 723.016 368.016 736.12 357.865C749.414 347.576 762.112 333.209 766.828 323.024C767.614 321.305 768.977 319.37 769.803 318.821C771.26 317.729 772.087 315.358 774.842 302.963L776.022 297.651L779.766 296.87C786.731 295.261 793.861 292.801 795.182 291.518C795.936 290.776 796.478 289.521 796.448 288.676C796.381 286.727 794.656 285.745 783.383 281.257C778.768 279.401 774.674 277.591 774.34 277.342C773.937 276.966 773.871 273.194 774.203 267.781C774.705 257.938 774.012 252.952 772.014 251.59C770.482 250.537 770.482 250.537 768.132 252.115ZM770.477 261.599C770.574 264.394 770.484 269.277 770.268 272.408L769.948 278.146L771.894 279.9C773.032 280.837 777.396 282.962 781.548 284.575C789.326 287.623 791.773 288.839 791.209 289.444C791.019 289.581 787.291 290.817 782.847 292.013C774.546 294.449 772.381 295.761 771.847 299.098C770.926 304.401 769.086 313.184 768.603 314.242C768.057 315.368 767.925 315.307 766.697 313.658C765.947 312.643 763.604 308.82 761.46 305.121C759.315 301.421 756.715 297.672 755.704 296.666C753.489 294.661 750.95 294.554 741.457 296.381C734.675 297.658 729.812 298.023 729.785 297.243C729.776 296.983 733.178 293.871 737.349 290.407C743.793 285.042 744.921 283.832 744.869 282.337C744.79 280.062 742.615 277.34 734.731 269.35C729.205 263.751 727.845 262.041 728.884 262.005C729.079 261.998 734.142 263.644 740.061 265.586L750.85 269.245L755.172 266.426C757.525 264.913 761.646 261.906 764.176 259.866C766.768 257.759 769.246 256.111 769.575 256.23C770.034 256.344 770.371 258.544 770.477 261.599ZM748.952 306.272C741.389 331.783 724.686 354.358 701.452 370.458C695.677 374.499 685.854 379.916 685.824 379.071C685.82 378.941 689.095 375.899 693.063 372.247C702.265 363.923 711.146 353.853 715.953 346.268C723.41 334.491 727.93 320.538 728.038 308.691L728.186 301.723L733.118 301.487C735.845 301.392 740.702 300.832 743.868 300.267C747.098 299.699 749.951 299.469 750.22 299.72C750.551 299.904 749.941 302.919 748.952 306.272ZM757.345 306.435C758.176 307.903 760.237 311.085 761.881 313.5C763.59 315.913 764.966 318.078 764.973 318.273C765 319.053 759.754 327.109 755.283 333.121C743.792 348.553 724.119 364.204 699.737 377.22C687.353 383.768 682.867 385.616 691.402 380.569C706.247 371.853 715.619 364.695 725.604 354.586C739.043 340.974 748.947 322.93 752.506 305.627C753.447 300.909 753.444 300.844 754.665 302.299C755.277 303.058 756.511 304.902 757.345 306.435Z" fill="url(#paint10_linear_493_1269)"/>
<path d="M708.127 280.167C708.006 280.431 707.755 286.296 707.603 293.134C707.232 308.634 705.904 319.027 702.616 331.049C699.906 340.97 699.654 343.061 701.017 343.013C702.9 342.948 705.646 337.777 708.399 329.091C710.629 322.181 711.536 316.488 711.847 306.717C712.35 293.164 710.09 276.78 708.127 280.167Z" fill="url(#paint11_linear_493_1269)"/>
<path d="M789.106 305.59C788.616 306.453 787.231 309.625 785.971 312.662C781.356 323.885 773.516 335.871 762.516 348.552C756.513 355.398 755.477 357.386 757.814 357.305C759.438 357.249 767.453 350.332 772.015 345.033C776.14 340.269 783.106 329.355 785.946 323.14C789.693 315.005 792.367 304.045 790.549 304.109C790.225 304.12 789.598 304.792 789.106 305.59Z" fill="url(#paint12_linear_493_1269)"/>
<path d="M685.79 357.533C683.039 360.688 682.583 362.525 684.466 362.46C685.7 362.417 690.25 356.793 690.2 355.363C690.141 353.673 688.35 354.516 685.79 357.533Z" fill="url(#paint13_linear_493_1269)"/>
<path d="M733.674 367.906C730.482 369.578 728.451 371.016 728.474 371.665C728.522 373.03 729.816 372.855 734.748 370.731C739.422 368.682 741.699 366.846 741.011 365.763C740.258 364.683 739.226 364.914 733.674 367.906Z" fill="url(#paint14_linear_493_1269)"/>
<path d="M237.865 343.04C235.137 348.041 235.562 353.981 239.178 360.911C246.812 375.444 269.804 386.637 291.858 386.495C298.06 386.445 297.841 386.362 297.531 388.827C297.131 391.835 299.259 393.35 303.209 392.836C305.791 392.423 306.321 392.603 308.564 394.836C311.928 398.185 314.292 403.372 315.36 409.65C316.13 414.622 316.089 416.012 314.923 431.099C314.178 440.2 314.557 443.29 316.844 447.813C320.416 455.016 326.363 457.951 336.319 457.448C338.442 457.285 345.329 456.183 351.649 454.848C366.637 451.773 368.54 451.527 373.414 451.631C378.483 451.674 383.015 453.864 387.258 458.103C391.744 462.568 394.364 467.332 397.366 476.304C399.401 482.369 400.123 483.932 401.03 484.081C402.534 484.282 402.529 482.605 401.023 476.161C399.087 467.784 397.278 464.039 392.402 457.693C388.679 452.84 387.429 451.656 384.485 450.007C377.069 445.805 372.052 445.724 353.983 449.41C338.368 452.615 333.572 453.176 328.794 452.203C323.979 451.177 321.388 448.794 319.545 443.553C318.318 439.95 318.303 434.917 319.558 421.847C320.615 410.842 318.336 401.429 313.105 395.258C311.453 393.402 309.596 391.373 309.021 390.905C308.112 390.197 308.096 389.728 308.962 388.706C310.693 386.662 310.89 384.039 309.411 381.979C308.159 380.236 308.121 380.183 311.816 374.968C325.18 355.927 330.538 332.866 324.444 320.59C319.11 309.929 308.565 308.053 297.927 315.851C292.159 320.072 288.194 325.801 284.451 335.293C282.725 339.574 281.013 343.205 280.583 343.273C280.137 343.433 276.976 342.26 273.458 340.703C257.724 333.826 242.375 334.839 237.865 343.04ZM250.19 341.157C256.072 340.216 261.409 341.188 270.349 344.616C274.993 346.406 279.538 347.946 280.513 347.967C283.551 348.187 285.464 346.173 287.285 341.023C289.445 335.23 293.141 328.013 295.543 325.008C298.329 321.647 303.946 317.774 307.291 316.973C316.124 314.795 321.621 321.336 321.664 333.874C321.711 344.968 315.686 362.423 307.622 374.697C305.892 377.3 303.889 379.859 303.203 380.351C301.462 381.602 289.094 381.755 281.823 380.65C271.014 378.964 260.659 374.79 252.316 368.851C248.099 365.874 242.714 358.372 241.568 353.991C239.773 347.034 242.925 342.29 250.19 341.157Z" fill="url(#paint15_linear_493_1269)"/>
<path d="M417.147 559.242C415.299 558.825 413.618 559.873 414.424 560.99C415.07 561.995 419.404 562.48 420.484 561.726C421.218 561.128 419.336 559.737 417.147 559.242Z" fill="url(#paint16_linear_493_1269)"/>
<path d="M343.375 513.85C342.88 514.219 341.908 515.84 341.24 517.594C339.358 522.227 339.028 522.473 335.412 522.093C329.836 521.457 329.44 523.162 334.111 527.369L336.942 529.897L335.416 534.7C334.531 537.333 334.008 539.901 334.286 540.412C334.869 541.849 338.349 540.945 342.008 538.422L345.322 536.055L347.342 537.701C348.814 538.885 349.655 539.154 350.528 538.811C351.619 538.382 351.671 537.626 351.144 534.405C350.456 530.279 350.742 529.527 353.97 526.942C356.868 524.602 356.552 523.351 352.915 523.115C351.44 522.959 349.895 522.675 349.575 522.452C349.202 522.192 348.251 520.261 347.465 518.207C345.84 514.062 344.8 512.941 343.375 513.85ZM345.351 521.014L345.908 522.829L344.289 522.651C342.851 522.442 342.728 522.277 343.104 520.716C343.342 519.693 343.612 518.85 343.723 518.69C344.095 518.157 344.848 519.236 345.351 521.014ZM346.153 529.976C344.889 531.79 344.798 531.806 342.773 530.394C341.387 529.428 340.773 528.604 340.969 527.869C341.424 525.966 342.046 525.528 344.171 525.661C347.052 525.846 347.827 527.575 346.153 529.976ZM337.761 526.108C337.575 526.375 337.176 526.493 336.856 526.27C336.59 526.085 336.509 525.632 336.695 525.365C336.918 525.045 337.334 525.018 337.6 525.203C337.92 525.426 337.984 525.788 337.761 526.108ZM340.774 535.421C337.95 537.655 337.417 537.283 338.818 534.137C339.576 532.367 339.794 532.281 341.02 533.136C342.3 534.028 342.279 534.171 340.774 535.421Z" fill="url(#paint17_linear_493_1269)"/>
<path d="M388.455 546.775C387.145 546.496 386.006 546.654 385.906 547.138C385.44 548.716 391.54 550.986 393.151 549.81C394.05 549.089 391.364 547.375 388.455 546.775Z" fill="url(#paint18_linear_493_1269)"/>
<path d="M374.938 540.604C372.61 539.853 371.726 539.872 371.349 540.64C370.856 541.802 371.479 542.157 376.615 543.993C378.639 544.611 380.168 544.804 380.502 544.324C381.172 543.363 379.002 541.931 374.938 540.604Z" fill="url(#paint19_linear_493_1269)"/>
<path d="M358.299 533.684C355.502 532.924 353.783 533.232 354.025 534.59C354.202 535.585 363.481 538.406 364.38 537.685C365.279 536.964 361.633 534.581 358.299 533.684Z" fill="url(#paint20_linear_493_1269)"/>
<path d="M350.92 540.749C349.973 541.199 351.763 545.221 353.758 547.245C357.533 551.145 356.918 546.119 353.057 542C352.246 541.118 351.356 540.577 350.92 540.749Z" fill="url(#paint21_linear_493_1269)"/>
<path d="M238.655 463.773C238.358 464.2 237.759 466.082 237.304 467.984C236.849 469.887 236.325 471.661 236.139 471.928C235.953 472.195 234.292 472.306 232.402 472.177C227.524 471.79 227.154 473.117 231.301 476.483L234.527 479.128L233.31 483.828C232.442 487.346 232.375 488.805 233.154 489.506C234.284 490.611 235.656 489.665 238.259 485.93L240.007 483.423L243.956 485.938C249.116 489.216 250.068 488.532 247.674 483.217C246.728 481.052 245.995 479.035 246.021 478.657C246.047 478.279 247.382 477.386 249.021 476.626C253.501 474.516 252.625 473.272 246.539 472.914L242.759 472.657L241.736 469.012C241.184 466.963 240.899 465.099 241.048 464.886C241.196 464.672 240.865 464.125 240.279 463.716C239.693 463.307 238.953 463.346 238.655 463.773ZM240.622 478.223C239.235 479.872 238.713 479.826 238.407 478.106C238.138 476.333 239.77 475.014 240.863 476.172C241.391 476.778 241.323 477.444 240.622 478.223ZM243.769 482.002C243.743 482.38 243.451 482.573 243.184 482.387C242.864 482.164 242.784 481.712 242.97 481.445C243.193 481.125 243.448 480.986 243.555 481.06C243.715 481.171 243.832 481.571 243.769 482.002Z" fill="url(#paint22_linear_493_1269)"/>
<path d="M319.718 519.953C317.199 519.704 317.68 520.832 321.145 523.247C323.064 524.584 324.758 525.448 324.907 525.234C325.985 523.687 322.508 520.154 319.718 519.953Z" fill="url(#paint23_linear_493_1269)"/>
<path d="M307.429 512.815C306.107 512.211 305.063 512.118 304.548 512.63C303.83 513.319 304.092 513.739 306.277 515.263C307.663 516.228 309.48 517.257 310.285 517.58C312.021 518.156 313.148 516.881 311.709 515.878C311.123 515.469 310.451 514.842 310.099 514.438C309.8 514.071 308.59 513.307 307.429 512.815Z" fill="url(#paint24_linear_493_1269)"/>
<path d="M381.822 567.201L378.613 568.056L375.893 565.368C372.416 561.835 369.282 559.968 368.325 560.886C367.937 561.329 367.851 563.726 368.228 566.367L368.794 571.121L365.91 571.965C364.313 572.437 362.802 573.128 362.579 573.448C362.059 574.195 364.137 575.644 367.696 577.015L370.594 578.083L371.449 582.88C372.663 589.434 373.755 589.798 377.229 584.927L379.885 581.229L382.378 581.857C385.803 582.738 386.615 581.005 384.341 577.677C382.297 574.587 382.264 573.613 384.458 570.465C386.837 567.05 385.957 566.04 381.822 567.201ZM374.727 568.518C375.122 569.428 375.011 569.588 373.563 569.847C372.078 570.16 372.009 570.032 371.589 567.679L371.101 565.199L372.7 566.313C373.606 566.945 374.486 567.954 374.727 568.518ZM378.761 573.866C378.873 574.5 378.582 575.486 378.099 576.179C377.02 577.727 374.128 577.217 373.087 575.302C372.275 573.627 372.849 572.917 375.367 572.373C377.613 571.877 378.47 572.237 378.761 573.866ZM375.632 581.991C374.851 583.111 374.798 583.074 374.455 581.408C374.176 580.104 374.329 579.656 374.995 579.724C376.31 579.768 376.562 580.657 375.632 581.991Z" fill="url(#paint25_linear_493_1269)"/>
<path d="M289.009 501.405C288.365 501.193 287.657 501.413 287.429 501.968C287.068 502.826 287.527 503.304 289.733 504.684C292.867 506.551 294.523 506.674 293.855 505.02C293.427 503.929 291.013 502.167 289.009 501.405Z" fill="url(#paint26_linear_493_1269)"/>
<path d="M272.275 491.327C271.95 491.338 271.455 491.707 271.158 492.134C270.823 492.614 271.58 493.459 274.086 495.205C277.497 497.582 279.51 497.876 278.703 495.966C278.222 494.838 273.126 491.127 272.275 491.327Z" fill="url(#paint27_linear_493_1269)"/>
<path d="M328.444 532.773C326.012 533.535 324.996 534.651 326.062 535.394C326.969 536.025 330.758 535.02 331.502 533.953C332.357 532.726 330.657 532.096 328.444 532.773Z" fill="url(#paint28_linear_493_1269)"/>
<path d="M359.418 554.123C358.637 555.243 362.017 561.642 363.194 561.431C364.551 561.188 364.345 558.984 362.776 556.463C361.222 554.033 360.05 553.216 359.418 554.123Z" fill="url(#paint29_linear_493_1269)"/>
<path d="M258.452 484.229C257.131 483.625 256.14 483.569 255.805 484.05C254.616 485.757 261.335 489.41 262.845 487.925C263.728 487.114 262.576 486.153 258.452 484.229Z" fill="url(#paint30_linear_493_1269)"/>
<path d="M319.051 536.136C316.156 536.654 312.746 538.479 312.907 539.384C313.229 541.194 320.494 539.52 322.093 537.225C323.06 535.838 322.219 535.569 319.051 536.136Z" fill="url(#paint31_linear_493_1269)"/>
<path d="M248.102 494.534C247.544 495.334 248.498 498.852 249.462 499.287C251.034 499.986 251.692 498.701 250.598 496.749C249.455 494.525 248.623 493.787 248.102 494.534Z" fill="url(#paint32_linear_493_1269)"/>
<path d="M356.051 570.088C352.713 570.219 354.032 572.644 357.44 572.641C358.377 572.66 359.319 572.445 359.542 572.125C360.026 571.431 357.675 570.031 356.051 570.088Z" fill="url(#paint33_linear_493_1269)"/>
<path d="M346.316 568.376C343.674 567.962 341.557 569.181 343.05 570.221C344.489 571.224 349.564 571.67 350.159 570.816C350.902 569.749 349.426 568.799 346.316 568.376Z" fill="url(#paint34_linear_493_1269)"/>
<path d="M252.447 504.776C251.575 505.119 252.282 510.923 253.348 511.666C254.574 512.52 255.433 510.265 254.684 508.158C253.528 504.816 253.267 504.396 252.447 504.776Z" fill="url(#paint35_linear_493_1269)"/>
<path d="M298.791 541.912C295.257 542.778 294.087 543.548 294.621 544.713C294.878 545.367 303.314 543.716 303.909 542.863C304.764 541.636 301.963 541.11 298.791 541.912Z" fill="url(#paint36_linear_493_1269)"/>
<path d="M254.611 519.284C253.867 520.351 254.896 524.556 256.085 525.464C257.524 526.467 258.081 524.873 257.347 522.063C256.613 519.252 255.466 518.057 254.611 519.284Z" fill="url(#paint37_linear_493_1269)"/>
<path d="M312.462 560.476C308.526 559.873 306.723 560.756 308.855 562.242C310.401 563.32 317.643 564.404 318.579 563.63C319.643 562.786 316.451 561.116 312.462 560.476Z" fill="url(#paint38_linear_493_1269)"/>
<path d="M285.625 545.577C282.228 545.904 278.419 547.847 278.661 549.205C278.903 550.562 279.643 550.523 284.368 548.743C287.22 547.719 288.427 546.896 288.314 546.262C288.202 545.629 287.376 545.45 285.625 545.577Z" fill="url(#paint39_linear_493_1269)"/>
<path d="M297.867 556.645C292.733 555.604 290.891 555.747 291.852 557.209C293.058 559.001 303.209 560.685 303.259 559.135C303.337 558.001 302.48 557.641 297.867 556.645Z" fill="url(#paint40_linear_493_1269)"/>
<path d="M267.216 540.514L264.747 541.33L262.421 538.758C261.189 537.344 259.562 535.814 258.816 535.294C256.844 533.92 255.714 536.223 256.428 539.971L257.029 543.085L253.282 543.803C250.929 544.224 249.328 544.931 249.079 545.63C248.606 546.648 249.012 547.089 253.228 549.79L257.817 552.75L257.639 555.163C256.925 564.257 260.245 566.65 263.039 559.006L264.226 555.712L265.835 556.357C270.572 558.311 271.254 558.469 271.774 557.722C272.072 557.295 271.307 555.097 270.073 552.89C267.505 548.167 267.429 547.48 269.288 544.813C272.077 540.811 271.335 539.263 267.216 540.514ZM260.797 542.224C260.611 542.491 260.319 542.683 260.212 542.609C260.052 542.497 259.972 542.045 259.998 541.667C260.061 541.235 260.316 541.096 260.583 541.282C260.903 541.505 261.02 541.904 260.797 542.224ZM263.765 546.829C263.878 547.462 263.363 548.769 262.657 549.782L261.318 551.703L260.803 548.807C260.367 546.363 260.521 545.915 261.591 545.631C263.097 545.174 263.507 545.381 263.765 546.829ZM257.208 548.283C257.054 548.731 256.388 548.663 255.536 548.069C254.256 547.177 254.224 546.996 255.294 546.711C256.672 546.324 257.541 547.009 257.208 548.283Z" fill="url(#paint41_linear_493_1269)"/>
<path d="M279.895 551.412C277.45 551.056 275.85 552.556 277.779 553.425C279.814 554.368 285.007 555.213 285.416 554.626C285.974 553.825 282.573 551.773 279.895 551.412Z" fill="url(#paint42_linear_493_1269)"/>
<path d="M793.216 615.255C795.513 623.794 799.983 631.082 807.484 638.199C814.23 644.601 818.247 646.98 826.686 649.614C831.508 651.145 834.091 651.447 841.627 651.253C850.265 651.031 850.911 651.106 853.858 653.007C865.231 660.485 885.453 660.149 905.703 652.226C923.995 645.042 948.803 628.726 961.87 615.24C966.344 610.619 967.321 609.306 967.113 608.392C966.654 606.703 965.705 607.325 958.294 613.906C941.051 629.431 921.023 642.222 903.546 648.925C890.167 654.142 876.513 655.965 866.207 653.977C862.092 653.117 855.449 650.575 855.382 649.796C855.375 649.52 857.317 648.228 859.672 646.88C864.698 643.947 866.981 641.635 869.079 637.535C871.264 633.249 870.967 629.026 868.214 625.787C865.369 622.549 863.738 621.718 860.102 621.581C855.959 621.412 852.285 623.3 848.987 627.247C844.622 632.508 843.671 638.234 846.165 643.825C846.85 645.371 847.167 646.926 846.809 647.303C845.915 648.246 835.796 648.138 830.986 647.067C816.974 644.07 803.89 632.728 797.147 617.821C795.777 614.729 794.33 612.192 794.007 612.154C792.805 611.909 792.599 612.788 793.216 615.255ZM855.033 626.355C857.795 624.767 862.765 624.915 864.652 626.706C868.332 630.197 867.729 635.179 862.851 640.224C858.826 644.465 852.914 646.916 851.027 645.126C848.669 642.887 847.799 637.852 849.03 634.004C850.352 630.154 851.776 628.37 855.033 626.355Z" fill="url(#paint43_linear_493_1269)"/>
<path d="M888.373 642.05C889.6 643.214 897.133 642.929 903.119 641.533C911.022 639.629 917.052 636.393 925.69 629.274C929.65 626.046 930.982 624.264 930.039 623.369C929.284 622.653 927.195 623.626 921.183 627.505C910.468 634.355 901.968 638.022 893.312 639.303C888.319 640.029 887.052 640.797 888.373 642.05Z" fill="url(#paint44_linear_493_1269)"/>
<path d="M977.473 558.928C977.644 560.165 979.722 563.928 983.852 570.535L986.736 575.242L982.46 585.606C977.536 597.503 977.118 599.077 978.392 600.286C979.901 601.718 982.629 600.544 989.935 595.207C993.769 592.396 997.199 590.008 997.656 589.905C998.615 589.65 1002.53 593.366 1008.56 600.337C1014.2 606.859 1014.9 607.163 1017.72 604.194C1018.7 603.157 1023.8 594.198 1028.96 584.318C1034.21 574.435 1039.51 564.597 1040.83 562.357C1043.65 557.594 1044.23 555.097 1042.82 554.121C1042.21 553.723 1038.17 553.735 1033.67 554.127C1029.17 554.518 1019.11 554.823 1011.29 554.748C987.427 554.58 985.497 554.63 982.608 554.934C979.72 555.238 977.288 557.14 977.473 558.928ZM994.474 558.491C1000.68 558.561 1009.79 558.603 1014.66 558.57C1019.53 558.536 1023.81 558.656 1024.14 558.786C1024.74 559 1021.47 560.372 1001.45 568.243C992.619 571.689 989.745 572.544 989.313 571.866C984.5 563.805 982.222 559.404 982.669 558.933C982.937 558.65 988.22 558.468 994.474 558.491ZM1012.74 567.585C1030.32 561.248 1033.24 560.437 1030.32 562.857C1020.51 570.926 1003.4 582.814 997.181 585.871C994.958 586.985 991.472 589.052 989.398 590.577C987.321 592.01 985.286 593.303 984.874 593.36C984.462 593.417 984.992 590.874 986.106 587.811C987.128 584.75 988.358 580.902 988.776 579.328L989.575 576.503L992.754 575.042C994.573 574.259 1003.54 570.856 1012.74 567.585ZM1007.34 583.954C1011.36 581.414 1031.53 566.964 1032.78 565.644C1033.99 564.464 1032.65 567.579 1029.19 574.151C1027.18 577.881 1023.43 585.518 1020.82 591.102C1018.25 596.64 1015.89 601.39 1015.63 601.673C1015.13 602.191 1013.53 600.577 1004.95 590.913C1003.34 589.115 1002.23 587.442 1002.5 587.159C1002.73 586.924 1004.94 585.441 1007.34 583.954Z" fill="url(#paint45_linear_493_1269)"/>
<path d="M350.242 645.02C349.402 645.372 345.946 648.23 342.495 651.437C339.045 654.645 335.339 657.748 334.225 658.286L332.176 659.285L327.454 648.02C322.782 636.875 322.707 636.695 320.79 636.16C316.846 634.995 313.874 637.157 303.411 648.869C299.697 652.962 296.417 656.239 296.162 656.135C295.907 656.031 295.737 647.719 295.854 637.736C295.946 627.694 295.909 618.692 295.747 617.632C295.171 614.07 291.261 611.975 287.902 613.383C285.563 614.363 282.234 618.366 270.827 633.714C264.48 642.292 258.378 650.275 257.199 651.332C253.075 655.456 252.61 652.833 254.563 634.614C256.928 611.995 256.931 605.442 254.459 607.112C253.3 607.88 252.571 611.356 250.377 626.647C247.155 648.568 247.68 656.379 252.476 658.737C256.115 660.522 260.204 656.484 274.116 637.69C288.226 618.531 289.484 617.158 290.363 619.255C290.615 619.854 290.677 626.732 290.501 634.555C290.061 656.72 290.494 661.118 293.408 662.855C295.676 664.229 298.399 662.313 305.991 653.847C315.306 643.602 317.793 641.291 318.899 641.743C319.495 641.987 320.625 644.683 322.431 650.337C326.802 663.792 329.273 666.491 335.09 664.052C338.989 662.418 341.51 660.022 347.439 652.465C352.315 646.265 353.18 643.788 350.242 645.02Z" fill="url(#paint46_linear_493_1269)"/>
<path d="M817.343 306.543C815.87 312.932 817.838 324.075 821.16 328.291C825.867 334.322 826.305 334.603 829.579 335.16C835.963 336.169 843.42 332.616 847.983 326.589C851.328 322.097 852.136 317.828 850.131 314.69C849.407 313.53 848.484 312.32 848.046 312.039C846.369 311.04 841.099 310.824 837.018 311.525L832.722 312.319L830.907 307.681C829.488 303.992 828.635 302.672 826.938 301.583C824.092 299.757 822.432 299.695 820.387 301.317C818.217 303.012 818.096 303.321 817.343 306.543ZM824.186 305.993C824.788 306.379 825.799 308.417 826.395 310.498C828.506 317.565 829.292 318.147 836.212 316.875C844.3 315.348 846.512 315.996 845.747 319.596C844.784 324.228 839.04 328.725 832.213 330.211L827.508 331.283L825.79 329.023C823.391 326.018 822.172 322.379 821.775 317.338C821.089 309.255 822.106 304.659 824.186 305.993Z" fill="url(#paint47_linear_493_1269)"/>
<path d="M762.383 394.484C759.562 403.095 763.18 412.75 771.171 417.878L775.058 420.371L769.045 429.019C758.638 444.034 746.275 456.558 733.071 465.455C728.938 468.284 725.539 470.812 725.598 471.081C725.849 472.015 729.383 470.963 733.544 468.692C747.746 461.13 764.269 445.254 775.365 428.443L780.492 420.693L784.034 420.11C796.493 417.914 806.744 406.273 812.099 388.172C814.122 381.287 816.055 371.41 817.603 360.207C818.764 351.534 818.788 348.847 817.802 348.215C816.872 347.618 815.666 351.785 813.397 363.992C807.91 392.895 801.923 405.959 790.966 412.438C788.023 414.255 783.505 415.756 782.684 415.229C782.465 415.089 782.558 414.222 782.9 413.207C783.262 412.281 783.832 408.864 784.227 405.72C785.039 399.757 784.345 394.217 782.297 390.664C780.696 387.861 776.591 385.227 773.704 385.15C769.102 384.977 764.197 389.009 762.383 394.484ZM771.91 390.716C773.808 389.926 776.266 391.272 777.848 393.985C780.099 397.823 779.873 407.327 777.424 413.553C776.836 414.951 776.496 415.119 775.082 414.674C770.708 413.181 766.653 406.255 766.692 400.413C766.656 396.376 769.099 391.845 771.91 390.716Z" fill="url(#paint48_linear_493_1269)"/>
<path d="M351.907 235.568C352.329 236.621 353.555 240.839 354.57 244.957C357.432 256.55 361.811 264.235 366.114 265.296C367.828 265.761 368.461 265.6 370.31 264.336C372.46 262.896 375.224 258.538 375.629 255.98C375.789 255.299 376.217 254.643 376.603 254.585C377.641 254.495 387.792 261.64 391.311 264.921C394.135 267.519 396.644 271.083 396.905 272.818C397.147 274.424 393.923 278.786 389.866 282.419C380.994 290.324 377.699 295.09 377.617 300.228C377.585 308.314 388.584 314.543 411.815 319.458C424.112 322.075 426.733 323.323 425.207 325.853C424.843 326.499 421.67 329.013 418.157 331.447C407.258 339 404.179 343.012 405.02 348.601C405.871 354.255 413.33 360.557 422.595 363.565C428.319 365.332 434.339 366.003 435.213 364.82C436.033 363.711 435.061 362.938 432.235 362.509C423.671 361.104 412.775 355.122 410.664 350.709C408.617 346.286 409.264 345.335 420.747 337.299C428.781 331.688 431.047 329.705 431.944 327.796C434.887 321.571 430.783 317.458 418.965 314.965C402.918 311.467 396.956 309.867 392.37 307.798C387.433 305.584 384.361 303.089 384.052 301.033C383.675 298.528 386.352 294.905 393.415 288.521C402.377 280.339 403.894 277.745 403.034 272.027C402.599 269.136 401.933 267.331 400.363 265.202C397.873 261.766 389.555 255.002 384.487 252.348L380.839 250.4L384.662 248.708C389.173 246.78 390.906 244.746 391.814 240.733C394.28 229.586 380.515 222.459 361.994 225.246C354.663 226.349 351.657 227.787 351.079 230.502C350.598 232.545 350.749 233.114 351.907 235.568ZM361.482 230.579C377.311 228.263 389.934 233.919 385.316 241.25C384.033 243.217 383.85 243.311 377.365 244.352C373.709 244.968 370.374 245.535 369.934 245.667C368.86 245.96 369.279 247.869 370.771 249.484C371.855 250.569 372.016 251.202 371.682 253.354C371.387 255.764 368.662 260.379 367.504 260.553C366.797 260.66 363.741 256.52 362.534 253.745C361.936 252.39 360.362 247.173 359.074 242.111C357.731 237.122 356.505 232.905 356.357 232.796C355.321 232.032 357.173 231.227 361.482 230.579Z" fill="url(#paint49_linear_493_1269)"/>
<path d="M845.751 493.369C844.137 493.343 841.521 494.17 838.724 495.701C836.324 496.975 834.186 498.045 834.051 498.1C833.917 498.156 833.075 495.957 832.201 493.299C830.447 487.893 828.394 485.502 824.784 484.601C822.16 483.955 817.853 485.637 815.718 488.09C810.899 493.724 811.609 506.069 817.34 515.714C821.187 522.08 821.254 521.707 812.611 532.031L805.2 540.841L805.072 534.953C804.843 524.924 799.398 514.753 794.244 514.835C792.22 514.884 790.359 516.627 789.881 519.056C789.287 521.816 789.858 528.779 790.909 531.332C791.973 534.069 796.114 540.691 798.578 543.699L800.233 545.657L796.816 548.89C789.029 556.252 773.377 565.82 758.178 572.593C750.304 575.998 748.979 576.828 749.861 577.595C751.772 579.259 769.489 572.265 781.887 564.951C789.771 560.347 799.381 553.365 801.772 550.618C803.608 548.509 805.131 548.541 809.568 550.766C817.96 554.88 829.742 554.704 836.532 550.269C840.416 547.786 840.681 542.93 836.959 541.07C833.232 539.118 824.469 538.992 814.959 540.714L811.683 541.311L814.836 537.59C816.538 535.536 819.416 531.834 821.227 529.358C824.422 524.896 824.556 524.841 828.43 523.557C834.559 521.563 839.499 518.362 844.49 513.223C849.993 507.495 851.655 504.2 851.426 499.516C851.227 495.291 849.487 493.431 845.751 493.369ZM847.52 500.341C847.595 504.114 842.857 510.25 836.703 514.549C830.939 518.498 825.648 520.618 824.954 519.238C824.684 518.658 823.426 516.442 822.217 514.268C818.823 508.469 817.728 505.274 817.339 500.279C816.918 494.825 818.188 491.189 821.175 489.737C825.359 487.602 827.904 491.111 828.343 499.512C828.825 507.864 830.447 508.672 835.321 503.172C837.2 501.014 841.218 498.476 844.023 497.728C846.009 497.129 847.51 498.176 847.52 500.341ZM833.383 547.355C831.143 548.94 819.575 549.561 815.023 548.358C812.913 547.814 811.212 547.195 811.193 546.92C811.086 545.361 825.83 543.366 831.414 544.175C835.231 544.738 835.801 545.666 833.383 547.355ZM798.982 526.116C799.805 528.04 800.601 531.578 800.759 533.871L801.091 538.041L799.5 537C796.26 534.783 793.364 526.83 794.253 522.345L794.695 520.056L796.067 521.251C796.851 521.933 798.152 524.1 798.982 526.116Z" fill="url(#paint50_linear_493_1269)"/>
<path d="M875.304 407.28C874.394 407.995 872.64 410.271 871.47 412.287L869.326 415.994L862.309 416.514C854.123 417.164 852.434 417.685 851.459 419.831C850.289 422.367 851.199 424.123 856.007 429C858.541 431.472 860.62 433.943 860.62 434.398C860.62 434.853 859.84 437.845 858.931 440.966C857.956 444.153 857.371 447.275 857.631 447.86C858.216 449.486 860.62 448.835 866.792 445.324C869.651 443.698 872.315 442.332 872.64 442.332C873.03 442.332 875.044 443.243 877.188 444.283C881.736 446.494 883.945 446.689 886.024 444.998C887.323 443.958 887.583 443.047 887.778 438.885L888.038 433.943L892.066 431.407C897.264 427.96 899.473 425.944 899.993 423.798C900.772 420.546 896.744 418.335 890.052 418.27C886.089 418.27 884.14 417.295 883.62 415.213C882.905 412.287 881.021 408.19 879.787 407.019C878.357 405.589 877.383 405.654 875.304 407.28ZM877.513 416.059C877.513 416.579 877.058 416.969 876.538 416.969C875.434 416.969 875.369 416.839 875.953 415.409C876.408 414.238 877.513 414.628 877.513 416.059ZM865.818 423.147C865.818 423.993 864.258 427.375 863.869 427.375C863.089 427.375 859.321 424.123 859.321 423.473C859.321 423.147 859.97 422.822 860.815 422.692C862.179 422.497 865.818 422.822 865.818 423.147ZM877.708 423.408C879.397 424.058 879.722 424.773 880.436 428.675C880.826 430.886 880.761 431.016 877.318 432.902L873.744 434.788L871.145 433.032L868.482 431.277L869.456 428.48C871.21 423.408 873.679 421.912 877.708 423.408ZM890.767 425.033C890.377 426.074 887.388 427.505 886.609 427.049C886.349 426.919 885.959 426.139 885.764 425.424C885.439 424.253 885.764 424.123 888.298 424.123C890.377 424.123 891.027 424.318 890.767 425.033ZM866.467 438.04C866.467 438.235 866.208 438.56 865.818 438.755C865.493 438.95 865.168 438.82 865.168 438.495C865.168 438.105 865.493 437.78 865.818 437.78C866.208 437.78 866.467 437.91 866.467 438.04Z" fill="url(#paint51_linear_493_1269)"/>
<path d="M174.028 566.616C173.99 567.773 174.602 570.58 175.392 572.773L176.849 576.8L172.73 582.505C167.958 589.188 167.269 590.816 168.284 592.943C169.472 595.471 171.402 595.905 178.229 595.365C181.751 595.017 184.981 595.016 185.329 595.309C185.678 595.602 187.465 598.125 189.268 600.83C191.08 603.627 193.092 606.084 193.707 606.262C195.328 606.861 196.378 604.603 197.663 597.618C198.259 594.384 198.929 591.467 199.138 591.218C199.389 590.92 201.382 589.964 203.559 588.993C208.178 586.936 209.75 585.371 209.794 582.692C209.834 581.027 209.305 580.242 206.245 577.414L202.63 574.034L203.282 569.318C203.99 563.122 203.869 560.134 202.561 558.355C200.575 555.665 196.29 557.324 191.932 562.404C189.381 565.437 187.38 566.301 185.453 565.359C182.753 564.022 178.405 562.827 176.714 563.018C174.699 563.191 174.122 563.978 174.028 566.616ZM182.168 570.577C182.567 570.912 182.572 571.511 182.238 571.909C181.527 572.754 181.386 572.72 180.667 571.351C180.064 570.25 181.074 569.656 182.168 570.577ZM180.065 584.09C180.712 584.634 182.296 588.004 182.045 588.302C181.543 588.899 176.629 589.69 176.132 589.271C175.883 589.062 176.052 588.355 176.496 587.625C177.225 586.455 179.816 583.88 180.065 584.09ZM187.918 575.158C189.503 574.284 190.259 574.496 193.705 576.46C195.648 577.585 195.706 577.719 194.933 581.568L194.076 585.517L191.059 586.375L188.001 587.284L186.488 584.738C183.735 580.13 184.18 577.278 187.918 575.158ZM197.568 566.21C198.114 567.179 197.285 570.387 196.434 570.69C196.168 570.806 195.319 570.602 194.646 570.29C193.542 569.785 193.651 569.453 195.282 567.514C196.62 565.923 197.188 565.551 197.568 566.21ZM191.88 593.179C192.029 593.304 192.111 593.712 192.009 594.136C191.95 594.51 191.641 594.675 191.392 594.466C191.094 594.215 191.054 593.757 191.263 593.508C191.514 593.21 191.781 593.095 191.88 593.179Z" fill="url(#paint52_linear_493_1269)"/>
<path d="M259.624 242.791C259.585 243.948 260.198 246.756 260.988 248.948L262.445 252.975L258.326 258.68C253.554 265.363 252.865 266.991 253.88 269.118C255.068 271.646 256.997 272.08 263.825 271.54C267.347 271.192 270.577 271.192 270.925 271.485C271.273 271.778 273.061 274.3 274.864 277.005C276.675 279.802 278.688 282.259 279.303 282.437C280.924 283.036 281.973 280.778 283.259 273.794C283.855 270.559 284.525 267.642 284.734 267.393C284.985 267.095 286.978 266.14 289.154 265.169C293.774 263.111 295.345 261.546 295.39 258.867C295.43 257.203 294.9 256.418 291.841 253.589L288.226 250.209L288.878 245.494C289.586 239.297 289.465 236.309 288.157 234.53C286.171 231.84 281.885 233.5 277.528 238.579C274.977 241.612 272.976 242.476 271.048 241.534C268.349 240.197 264.001 239.002 262.31 239.193C260.295 239.366 259.718 240.154 259.624 242.791ZM267.764 246.752C268.162 247.087 268.168 247.686 267.834 248.084C267.123 248.929 266.981 248.895 266.263 247.527C265.66 246.425 266.669 245.831 267.764 246.752ZM265.661 260.265C266.308 260.809 267.892 264.179 267.641 264.477C267.139 265.074 262.225 265.865 261.727 265.446C261.479 265.237 261.648 264.53 262.092 263.8C262.821 262.631 265.412 260.056 265.661 260.265ZM273.513 251.333C275.098 250.459 275.855 250.671 279.301 252.636C281.244 253.761 281.302 253.894 280.529 257.743L279.672 261.692L276.655 262.551L273.597 263.459L272.084 260.913C269.331 256.305 269.776 253.453 273.513 251.333ZM283.164 242.386C283.709 243.354 282.88 246.562 282.03 246.866C281.763 246.981 280.915 246.777 280.242 246.466C279.137 245.961 279.247 245.628 280.878 243.689C282.216 242.098 282.784 241.726 283.164 242.386ZM277.476 269.354C277.625 269.479 277.707 269.888 277.605 270.312C277.545 270.686 277.237 270.851 276.988 270.641C276.689 270.39 276.649 269.932 276.859 269.684C277.11 269.385 277.376 269.27 277.476 269.354Z" fill="url(#paint53_linear_493_1269)"/>
<path d="M122.256 610.969C120.895 611.088 118.562 611.956 117.052 612.852C114.743 614.215 114.077 615.077 112.558 618.606C111.024 621.99 110.814 623.3 111.029 626.64L111.345 630.643L106.381 631.504C100.049 632.691 92.0869 632.855 83.9317 632.046C78.6446 631.539 76.0343 630.916 69.251 628.466C64.7439 626.792 60.4266 624.981 59.6419 624.481C58.8797 623.921 57.7608 623.574 57.1603 623.698C56.1648 623.953 56.1195 624.075 56.7075 624.917C58.3949 627.279 62.1883 629.381 69.6415 632.08C76.2803 634.546 78.6853 635.162 84.8321 635.78C93.0255 636.672 100.805 636.44 108.209 635.166C113.295 634.35 113.295 634.35 114.326 636.051C116.038 638.907 121.537 644.626 125.546 647.641C132.818 653.256 140.767 656.486 156.855 660.38L160.037 661.146L160.686 664.994C162.472 675.301 173.381 686.983 185.379 691.44C193.967 694.63 206.351 695.622 219.048 694.094C226.149 693.263 230.671 692.098 231.078 691.001C231.441 690.025 230.026 689.916 220.984 690.373C204.757 691.145 197.484 690.386 188.348 686.993C178.116 683.192 171.087 677.113 167.222 668.67C164.008 661.649 164.205 661.306 171.156 661.252C188.184 661.125 201.355 652.905 199.2 643.78C197.837 637.932 192.179 635.067 183.457 635.782C177.542 636.221 170.903 639.167 166.822 643.062C164.486 645.247 163.313 647.1 161.597 650.972L159.33 655.957L154.939 655.09C152.55 654.619 147.442 653.068 143.544 651.621C132.825 647.639 125.228 642.528 120.228 636.023L118.006 633.047L122.001 631.062C126.581 628.809 130.934 624.738 132.067 621.689C133.063 619.007 132.314 615.052 130.538 613.49C128.563 611.716 125 610.671 122.256 610.969ZM128.392 618.521C128.393 621.504 124.723 625.414 119.983 627.538C116.77 628.911 116.206 628.563 115.786 625.216C115.335 621.58 117.764 617.279 120.932 616.027C124.411 614.684 128.354 616.009 128.392 618.521ZM194.226 643.736C194.784 644.845 195.047 646.192 194.843 646.74C193.507 650.337 185.914 654.732 179.255 655.866C175.614 656.525 166.846 656.807 165.628 656.354C165.263 656.219 165.608 654.543 166.332 652.592C168.755 646.069 175.89 641.227 184.307 640.399C189.835 639.885 192.986 640.917 194.226 643.736Z" fill="url(#paint54_linear_493_1269)"/>
<path d="M1004.23 338.051C994.04 333.983 978.931 335.484 967.822 341.647C963.905 343.868 962.993 343.972 959.346 342.191C954.621 339.934 944.476 338.208 940.238 339.029C936.289 339.767 934.051 344.019 935.657 347.719C937.004 350.786 944.06 358.734 949.355 363.261C951.707 365.177 952.629 367.032 952.929 371.106C955.559 398.451 979.95 416.268 1005.37 409.382C1013.68 407.159 1013.83 407.117 1022.08 410.482C1035.7 415.844 1044.58 414.793 1045.17 407.795C1045.5 403.462 1040.81 397.193 1034.33 393.474C1029.35 390.585 1028.99 390.139 1029.76 387.641C1034.35 372.358 1029 354.738 1017.02 345.767C1014.99 344.151 1012.49 342.276 1011.52 341.613C1010.6 340.857 1007.32 339.283 1004.23 338.051ZM1017.13 353.273C1021.82 358.443 1025.95 370.994 1025.43 378.521C1025.14 381.9 1024 386.151 1022.66 388.577C1019.86 393.617 1015.15 398.575 1013 398.721C1010.89 398.774 993.299 388.272 978.555 378.131C957.976 363.775 958.152 364.117 962.868 355.624C969.293 344.052 982.837 337.897 995.075 340.907C1002.4 342.655 1012.79 348.548 1017.13 353.273ZM957.79 353.781C954.888 359.008 954.495 359.277 952.629 358.242C950.112 356.844 943.895 350.461 941.833 347.363C941.118 346.233 940.983 344.938 941.667 344.585C943.626 343.475 954.744 344.764 957.915 346.525L960.899 348.182L957.79 353.781ZM1037.15 403.342C1038.6 405.124 1039.29 406.969 1038.74 407.519C1037 409.116 1031.44 408.352 1025.21 405.504L1019.4 403.009L1021.46 400.614C1026.23 395.324 1026.09 395.366 1030.47 397.799C1032.8 399.094 1035.79 401.611 1037.15 403.342ZM985.559 389.468C996.097 396.418 1004.86 402.385 1004.99 402.82C1005.41 404.033 998.645 404.793 991.93 404.361C982.552 403.672 972.253 397.831 966.388 389.935C962.513 384.609 958.462 374.545 959.499 372.678C959.758 372.212 961.395 372.999 963.198 374.366C964.907 375.682 975.021 382.518 985.559 389.468Z" fill="url(#paint55_linear_493_1269)"/>
<path d="M196.655 406.827C193.926 407.998 190.612 411.965 190.158 414.631C188.858 421.264 195.745 428.158 205.296 429.979C209.909 430.824 212.963 430.174 215.562 427.703C217.446 425.882 217.771 425.166 217.771 422.565C217.771 416.842 213.807 412.485 208.09 411.9C201.593 411.314 198.864 414.826 201.593 420.419C203.997 425.361 206.79 425.231 205.426 420.289C205.036 418.793 204.906 417.297 205.101 416.972C206.271 415.086 212.118 417.688 213.223 420.614C214.132 422.89 214.067 423.28 212.573 424.776C208.739 428.613 195.875 423.801 194.121 417.818C193.471 415.737 195.29 411.965 197.759 410.469C199.514 409.363 200.878 409.168 205.621 409.233C208.739 409.298 211.468 409.168 211.663 408.973C213.937 406.697 201.073 404.876 196.655 406.827Z" fill="url(#paint56_linear_493_1269)"/>
<path d="M799.655 437.827C796.926 438.998 793.612 442.965 793.158 445.631C791.858 452.264 798.745 459.158 808.296 460.979C812.909 461.824 815.963 461.174 818.562 458.703C820.446 456.882 820.771 456.166 820.771 453.565C820.771 447.842 816.807 443.485 811.09 442.9C804.593 442.314 801.864 445.826 804.593 451.419C806.997 456.361 809.79 456.231 808.426 451.289C808.036 449.793 807.906 448.297 808.101 447.972C809.271 446.086 815.118 448.688 816.223 451.614C817.132 453.89 817.067 454.28 815.573 455.776C811.739 459.613 798.875 454.801 797.121 448.818C796.471 446.737 798.29 442.965 800.759 441.469C802.514 440.363 803.878 440.168 808.621 440.233C811.739 440.298 814.468 440.168 814.663 439.973C816.937 437.697 804.073 435.876 799.655 437.827Z" fill="url(#paint57_linear_493_1269)"/>
<path d="M901.655 566.827C898.926 567.998 895.612 571.965 895.158 574.631C893.858 581.264 900.745 588.158 910.296 589.979C914.909 590.824 917.963 590.174 920.562 587.703C922.446 585.882 922.771 585.166 922.771 582.565C922.771 576.842 918.807 572.485 913.09 571.9C906.593 571.314 903.864 574.826 906.593 580.419C908.997 585.361 911.79 585.231 910.426 580.289C910.036 578.793 909.906 577.297 910.101 576.972C911.271 575.086 917.118 577.688 918.223 580.614C919.132 582.89 919.067 583.28 917.573 584.776C913.739 588.613 900.875 583.801 899.121 577.818C898.471 575.737 900.29 571.965 902.759 570.469C904.514 569.363 905.878 569.168 910.621 569.233C913.739 569.298 916.468 569.168 916.663 568.973C918.937 566.697 906.073 564.876 901.655 566.827Z" fill="url(#paint58_linear_493_1269)"/>
<path d="M89.1997 512.427C91.7732 513.529 92.0956 512.012 89.9829 508.704C87.2271 504.385 87.1381 498.134 89.8062 493.352C91.8763 489.536 91.1876 488.02 88.1072 489.722C84.5211 491.838 82.4507 496.297 82.7241 501.353C83.0892 506.777 85.4775 510.82 89.1997 512.427Z" fill="url(#paint59_linear_493_1269)"/>
<path d="M111.305 519.817C116.268 522.205 120.128 523.03 125.828 522.936C132.355 522.841 138.055 521.643 143.893 519.112C146.468 518.008 148.72 517.042 148.904 517.042C149.042 516.996 149.271 518.696 149.408 520.856C149.819 526.969 153.539 532.529 157.86 533.446C162.685 534.409 170.04 532.108 177.489 527.324C180.018 525.714 182.73 524.288 183.419 524.242C184.155 524.149 189.486 524.882 195.231 525.845C206.124 527.632 210.123 527.768 211.64 526.251C212.744 525.147 211.779 524.182 208.332 523.035C206.862 522.576 203.691 520.693 201.302 518.856C199.004 517.018 194.915 514.216 192.25 512.563C183.565 507.189 182.049 506.041 181.912 504.708C181.866 504.018 182.281 501.031 182.88 498.043C184.631 489.125 183.117 482.277 178.477 477.545C174.618 473.686 168.459 472.77 161.38 475.071L159.036 475.762L159.359 472.59C160.051 466.752 159.549 458.617 158.31 454.987C156.703 450.345 153.258 446.624 149.719 445.66C145.629 444.605 140.158 446.768 134.87 451.596L130.502 455.505L129.353 453.805C119.111 438.872 107.026 430.926 95.3969 431.529C91.4899 431.76 86.433 433.693 84.3177 435.808C82.3403 437.786 80.2696 442.889 80.0841 446.474C79.4362 455.851 86.6482 464.994 101.582 473.766C104.799 475.695 107.602 477.578 107.785 478.038C108.015 478.451 106.635 480.474 104.106 483.371C97.7594 490.636 96.2868 494.222 97.2031 500.749C98.2566 508.516 104.09 516.465 111.305 519.817ZM101.66 504.837C98.6754 497.439 99.9185 492.98 107.001 484.887C113.623 477.346 113.439 476.886 102.503 470.272C97.8162 467.425 95.1053 465.358 91.2462 461.499C86.6519 456.996 86.0089 456.077 84.7695 452.631C80.4085 440.728 90.4326 432.082 103.3 436.765C110.883 439.473 117.453 444.94 124.251 454.129C127.742 458.816 128.34 459.413 129.902 459.78C131.924 460.147 131.557 460.423 137.121 455.042C149.72 442.81 158.036 450.574 155.452 472.27C154.991 476.223 154.943 479.762 155.265 480.084C156.137 480.957 157.7 480.68 160.735 479.208C166.159 476.632 172.686 476.996 175.856 480.166C179.44 483.75 180.539 491.563 178.605 500.297C177.729 504.112 178.188 506.686 180.026 508.524C180.577 509.075 184.437 511.739 188.572 514.403C198.865 521.109 200.749 522.441 200.197 522.993C199.921 523.269 196.152 522.811 191.786 521.94C187.42 521.16 183.145 520.657 182.318 520.841C181.445 521.071 179.054 522.359 176.985 523.693C169.582 528.523 161.951 531.1 158.183 529.999C154.552 528.852 151.752 522.004 152.857 516.764C153.548 513.776 152.814 511.846 151.113 511.893C150.423 511.939 147.987 512.997 145.642 514.147C134.057 520.22 120.543 520.778 111.169 515.634C107.631 513.66 103.129 508.606 101.66 504.837Z" fill="url(#paint60_linear_493_1269)"/>
<path d="M131.522 533.413C132.625 533.32 135.246 532.905 137.314 532.399L141.13 531.524L142.691 534.648C144.298 538.003 146.044 539.473 147.056 538.461C147.377 538.139 147.424 537.174 147.149 536.255C146.873 535.428 146.277 532.9 145.91 530.694C144.764 525.041 143.936 524.858 135.431 528.585C131.616 530.195 128.535 531.713 128.535 531.989C128.535 533 129.684 533.505 131.522 533.413Z" fill="url(#paint61_linear_493_1269)"/>
<path d="M186.769 536.237C191.457 536.051 197.479 535.266 198.95 534.622C200.559 533.84 199.962 532.599 197.894 532.462C195.09 532.326 183.323 533.894 182.771 534.446C181.575 535.642 183.23 536.376 186.769 536.237Z" fill="url(#paint62_linear_493_1269)"/>
<path d="M201.259 512.375C207.692 515.405 210.404 515.726 209.118 513.244C208.521 512.096 199.147 507.412 197.032 507.229C193.861 506.909 196.388 509.987 201.259 512.375Z" fill="url(#paint63_linear_493_1269)"/>
<path d="M138.736 440.747C139.196 440.839 140.804 440.516 142.367 440.056C145.907 438.905 148.527 438.95 152.295 440.419C156.293 441.934 160.566 446.115 162.449 450.48C163.78 453.467 163.918 453.697 164.929 453.237C166.4 452.593 165.897 448.043 164.014 444.688C161.075 439.45 153.585 434.811 148.207 434.951C144.806 435.045 140.53 436.564 138.645 438.449C137.174 439.92 137.173 440.472 138.736 440.747Z" fill="url(#paint64_linear_493_1269)"/>
<path d="M504.45 2.4156C501.41 3.947 497.844 7.74444 496.696 10.7614C494.854 15.6169 493.989 23.7155 494.99 27.8894C495.884 31.6205 495.566 31.9644 492.038 31.7402C485.139 31.388 478.995 34.4659 477.913 38.8716C477.094 42.1442 478.486 46.5585 481.539 50.3741C484.39 53.9039 490.308 57.9687 493.799 58.8707C496.283 59.4789 496.437 59.8432 494.918 62.1467C493.063 64.999 493.328 66.9417 496.164 70.4081C499.904 74.8615 504.999 77.7195 512.922 79.8325C524.099 82.7034 534.678 82.2403 538.227 78.6477C539.483 77.4772 542.576 70.3155 543.413 66.8381C543.446 66.6964 544.72 66.9929 546.276 67.3553C548.336 67.8647 549.724 67.7996 551.685 67.0619C561.412 63.3254 574.082 43.4354 575.313 29.8989C575.733 25.5183 573.916 17.6613 571.876 15.0071C568.467 10.5413 562.367 9.06134 558.166 11.6065C555.361 13.2821 552.975 15.5929 550.309 19.2415C549.144 20.7915 548.044 22.0582 547.792 22.1187C547.539 22.1793 546.639 20.6563 545.712 18.7386C542.7 12.3051 537.655 9.10065 532.351 10.1049C529.492 10.7233 529.336 10.6271 527.281 7.90965C525.133 5.08086 520.48 2.11687 516.849 1.18189C515.151 0.786539 507.68 0.83877 506.715 1.27085C506.54 1.37953 505.512 1.82676 504.45 2.4156ZM513.457 6.54255C517.235 6.97426 520.67 8.75901 523.119 11.4488L525.239 13.883L523.629 17.479C521.599 22.1118 521.129 25.1671 521.715 29.8416C522.203 33.269 522.041 33.7091 520.194 35.757C516.946 39.2106 515.452 48.8644 517.011 55.6463C517.315 56.9111 517.398 58.0949 517.254 58.33C517.125 58.6285 515.063 58.3872 512.672 57.8904C510.281 57.3935 506.738 57.1061 504.752 57.1811C498.287 57.5272 491.087 53.9702 486.116 48.0062C483.498 44.8889 482.533 41.9772 483.42 39.8251C484.37 37.6579 489.675 36.6536 494.929 37.6678C499.286 38.5626 501.763 38.3032 502.248 36.9831C502.41 36.5431 501.965 33.5734 501.255 30.333C499.236 20.5183 500.763 12.3947 505.335 8.89112C508.082 6.69438 509.899 6.19187 513.457 6.54255ZM535.206 14.7703C538.257 15.5103 540.87 19.1638 542.656 25.2224C545.269 33.8917 547.003 33.8773 552.871 24.9135C557.668 17.6109 560.845 14.9768 564.118 15.5297C566.824 15.9508 568.55 18.4126 569.779 23.5351C570.916 28.2781 570.008 34.247 567.092 41.0319C563.288 49.9688 553.944 61.4377 549.585 62.4828C547.563 62.9675 544.068 62.6017 543.901 61.9061C543.919 61.7012 543.843 59.7131 543.848 57.505C543.881 52.3477 542.047 44.6956 539.891 40.9992C537.379 36.6527 533.702 33.856 529.203 32.9283C525.476 32.15 525.319 32.0539 525.228 30.0025C525.067 25.4269 526.755 20.2071 529.462 17.2844C532.376 14.1114 532.502 14.0811 535.206 14.7703ZM531.708 39.751C534.447 41.7024 536.618 45.462 537.816 50.458C539.526 57.8723 538.313 69.532 535.073 75.5251L533.501 78.4432L528.507 78.2361C518.456 77.8369 508.057 74.3113 502.194 69.3638C499.004 66.6508 498.661 64.6601 501.132 63.265C503.842 61.7461 506.867 61.8234 513.738 63.4529C520.248 64.9684 521.982 64.954 522.801 63.3533C523.059 62.7565 522.869 59.4582 522.415 55.8891C521.447 48.2298 521.71 43.7529 523.3 40.6299C524.28 38.5892 524.74 38.2783 526.775 38.1249C528.4 37.936 529.939 38.5033 531.708 39.751Z" fill="url(#paint65_linear_493_1269)"/>
<defs>
<linearGradient id="paint0_linear_493_1269" x1="666.928" y1="38.5789" x2="659.99" y2="193.193" gradientUnits="userSpaceOnUse">
<stop stop-color="#42307D"/>
<stop offset="1" stop-color="#7F56D9"/>
</linearGradient>
<linearGradient id="paint1_linear_493_1269" x1="681.152" y1="157.072" x2="689.142" y2="175.021" gradientUnits="userSpaceOnUse">
<stop stop-color="#42307D"/>
<stop offset="1" stop-color="#7F56D9"/>
</linearGradient>
<linearGradient id="paint2_linear_493_1269" x1="709.921" y1="178.367" x2="718.081" y2="192.848" gradientUnits="userSpaceOnUse">
<stop stop-color="#42307D"/>
<stop offset="1" stop-color="#7F56D9"/>
</linearGradient>
<linearGradient id="paint3_linear_493_1269" x1="641.535" y1="139.946" x2="647.936" y2="154.55" gradientUnits="userSpaceOnUse">
<stop stop-color="#42307D"/>
<stop offset="1" stop-color="#7F56D9"/>
</linearGradient>
<linearGradient id="paint4_linear_493_1269" x1="671.439" y1="184.446" x2="678.726" y2="203.171" gradientUnits="userSpaceOnUse">
<stop stop-color="#42307D"/>
<stop offset="1" stop-color="#7F56D9"/>
</linearGradient>
<linearGradient id="paint5_linear_493_1269" x1="636.373" y1="167.216" x2="641.224" y2="178.369" gradientUnits="userSpaceOnUse">
<stop stop-color="#42307D"/>
<stop offset="1" stop-color="#7F56D9"/>
</linearGradient>
<linearGradient id="paint6_linear_493_1269" x1="341.675" y1="117" x2="408.038" y2="237.495" gradientUnits="userSpaceOnUse">
<stop stop-color="#42307D"/>
<stop offset="1" stop-color="#7F56D9"/>
</linearGradient>
<linearGradient id="paint7_linear_493_1269" x1="363.745" y1="139.207" x2="432.968" y2="251.947" gradientUnits="userSpaceOnUse">
<stop stop-color="#42307D"/>
<stop offset="1" stop-color="#7F56D9"/>
</linearGradient>
<linearGradient id="paint8_linear_493_1269" x1="332" y1="170.229" x2="355.215" y2="183.761" gradientUnits="userSpaceOnUse">
<stop stop-color="#42307D"/>
<stop offset="1" stop-color="#7F56D9"/>
</linearGradient>
<linearGradient id="paint9_linear_493_1269" x1="500.934" y1="184.626" x2="516.779" y2="190.609" gradientUnits="userSpaceOnUse">
<stop stop-color="#42307D"/>
<stop offset="1" stop-color="#7F56D9"/>
</linearGradient>
<linearGradient id="paint10_linear_493_1269" x1="658.998" y1="254.737" x2="803.899" y2="385.902" gradientUnits="userSpaceOnUse">
<stop stop-color="#42307D"/>
<stop offset="1" stop-color="#7F56D9"/>
</linearGradient>
<linearGradient id="paint11_linear_493_1269" x1="698.059" y1="280.085" x2="723.404" y2="284.457" gradientUnits="userSpaceOnUse">
<stop stop-color="#42307D"/>
<stop offset="1" stop-color="#7F56D9"/>
</linearGradient>
<linearGradient id="paint12_linear_493_1269" x1="754.873" y1="305.35" x2="804.824" y2="337.621" gradientUnits="userSpaceOnUse">
<stop stop-color="#42307D"/>
<stop offset="1" stop-color="#7F56D9"/>
</linearGradient>
<linearGradient id="paint13_linear_493_1269" x1="683.085" y1="354.729" x2="691.067" y2="361.514" gradientUnits="userSpaceOnUse">
<stop stop-color="#42307D"/>
<stop offset="1" stop-color="#7F56D9"/>
</linearGradient>
<linearGradient id="paint14_linear_493_1269" x1="728.262" y1="365.579" x2="734.513" y2="376.158" gradientUnits="userSpaceOnUse">
<stop stop-color="#42307D"/>
<stop offset="1" stop-color="#7F56D9"/>
</linearGradient>
<linearGradient id="paint15_linear_493_1269" x1="229.442" y1="347.822" x2="396.556" y2="312.848" gradientUnits="userSpaceOnUse">
<stop stop-color="#42307D"/>
<stop offset="1" stop-color="#7F56D9"/>
</linearGradient>
<linearGradient id="paint16_linear_493_1269" x1="415.943" y1="557.677" x2="415.528" y2="563.918" gradientUnits="userSpaceOnUse">
<stop stop-color="#42307D"/>
<stop offset="1" stop-color="#7F56D9"/>
</linearGradient>
<linearGradient id="paint17_linear_493_1269" x1="339.741" y1="510.158" x2="348.16" y2="546.984" gradientUnits="userSpaceOnUse">
<stop stop-color="#42307D"/>
<stop offset="1" stop-color="#7F56D9"/>
</linearGradient>
<linearGradient id="paint18_linear_493_1269" x1="387.433" y1="544.898" x2="386.274" y2="550.888" gradientUnits="userSpaceOnUse">
<stop stop-color="#42307D"/>
<stop offset="1" stop-color="#7F56D9"/>
</linearGradient>
<linearGradient id="paint19_linear_493_1269" x1="373.081" y1="538.129" x2="371.482" y2="545.218" gradientUnits="userSpaceOnUse">
<stop stop-color="#42307D"/>
<stop offset="1" stop-color="#7F56D9"/>
</linearGradient>
<linearGradient id="paint20_linear_493_1269" x1="356.122" y1="531.002" x2="354.34" y2="538.692" gradientUnits="userSpaceOnUse">
<stop stop-color="#42307D"/>
<stop offset="1" stop-color="#7F56D9"/>
</linearGradient>
<linearGradient id="paint21_linear_493_1269" x1="351.081" y1="540.433" x2="349.877" y2="547.968" gradientUnits="userSpaceOnUse">
<stop stop-color="#42307D"/>
<stop offset="1" stop-color="#7F56D9"/>
</linearGradient>
<linearGradient id="paint22_linear_493_1269" x1="236.615" y1="461.162" x2="242.967" y2="496.224" gradientUnits="userSpaceOnUse">
<stop stop-color="#42307D"/>
<stop offset="1" stop-color="#7F56D9"/>
</linearGradient>
<linearGradient id="paint23_linear_493_1269" x1="319.192" y1="518.732" x2="317.683" y2="523.442" gradientUnits="userSpaceOnUse">
<stop stop-color="#42307D"/>
<stop offset="1" stop-color="#7F56D9"/>
</linearGradient>
<linearGradient id="paint24_linear_493_1269" x1="305.519" y1="511.167" x2="303.906" y2="516.494" gradientUnits="userSpaceOnUse">
<stop stop-color="#42307D"/>
<stop offset="1" stop-color="#7F56D9"/>
</linearGradient>
<linearGradient id="paint25_linear_493_1269" x1="371.058" y1="556.96" x2="376.198" y2="591.936" gradientUnits="userSpaceOnUse">
<stop stop-color="#42307D"/>
<stop offset="1" stop-color="#7F56D9"/>
</linearGradient>
<linearGradient id="paint26_linear_493_1269" x1="288.39" y1="500.55" x2="287.036" y2="505.397" gradientUnits="userSpaceOnUse">
<stop stop-color="#42307D"/>
<stop offset="1" stop-color="#7F56D9"/>
</linearGradient>
<linearGradient id="paint27_linear_493_1269" x1="272.146" y1="490.716" x2="270.534" y2="495.397" gradientUnits="userSpaceOnUse">
<stop stop-color="#42307D"/>
<stop offset="1" stop-color="#7F56D9"/>
</linearGradient>
<linearGradient id="paint28_linear_493_1269" x1="328.325" y1="530.647" x2="329.993" y2="537.235" gradientUnits="userSpaceOnUse">
<stop stop-color="#42307D"/>
<stop offset="1" stop-color="#7F56D9"/>
</linearGradient>
<linearGradient id="paint29_linear_493_1269" x1="359.892" y1="553.442" x2="359.533" y2="561.549" gradientUnits="userSpaceOnUse">
<stop stop-color="#42307D"/>
<stop offset="1" stop-color="#7F56D9"/>
</linearGradient>
<linearGradient id="paint30_linear_493_1269" x1="256.868" y1="482.526" x2="255.485" y2="488.071" gradientUnits="userSpaceOnUse">
<stop stop-color="#42307D"/>
<stop offset="1" stop-color="#7F56D9"/>
</linearGradient>
<linearGradient id="paint31_linear_493_1269" x1="317.436" y1="532.646" x2="320.474" y2="542.364" gradientUnits="userSpaceOnUse">
<stop stop-color="#42307D"/>
<stop offset="1" stop-color="#7F56D9"/>
</linearGradient>
<linearGradient id="paint32_linear_493_1269" x1="248.444" y1="494.044" x2="248.651" y2="500.01" gradientUnits="userSpaceOnUse">
<stop stop-color="#42307D"/>
<stop offset="1" stop-color="#7F56D9"/>
</linearGradient>
<linearGradient id="paint33_linear_493_1269" x1="355.606" y1="568.73" x2="355.269" y2="574.088" gradientUnits="userSpaceOnUse">
<stop stop-color="#42307D"/>
<stop offset="1" stop-color="#7F56D9"/>
</linearGradient>
<linearGradient id="paint34_linear_493_1269" x1="344.868" y1="565.997" x2="344.542" y2="573.597" gradientUnits="userSpaceOnUse">
<stop stop-color="#42307D"/>
<stop offset="1" stop-color="#7F56D9"/>
</linearGradient>
<linearGradient id="paint35_linear_493_1269" x1="252.65" y1="504.403" x2="254.023" y2="512.155" gradientUnits="userSpaceOnUse">
<stop stop-color="#42307D"/>
<stop offset="1" stop-color="#7F56D9"/>
</linearGradient>
<linearGradient id="paint36_linear_493_1269" x1="298.451" y1="538.25" x2="300.54" y2="548.367" gradientUnits="userSpaceOnUse">
<stop stop-color="#42307D"/>
<stop offset="1" stop-color="#7F56D9"/>
</linearGradient>
<linearGradient id="paint37_linear_493_1269" x1="255.148" y1="518.512" x2="256.055" y2="526.186" gradientUnits="userSpaceOnUse">
<stop stop-color="#42307D"/>
<stop offset="1" stop-color="#7F56D9"/>
</linearGradient>
<linearGradient id="paint38_linear_493_1269" x1="310.606" y1="557.161" x2="309.296" y2="566.303" gradientUnits="userSpaceOnUse">
<stop stop-color="#42307D"/>
<stop offset="1" stop-color="#7F56D9"/>
</linearGradient>
<linearGradient id="paint39_linear_493_1269" x1="283.106" y1="542.389" x2="286.234" y2="552.412" gradientUnits="userSpaceOnUse">
<stop stop-color="#42307D"/>
<stop offset="1" stop-color="#7F56D9"/>
</linearGradient>
<linearGradient id="paint40_linear_493_1269" x1="294.483" y1="552.311" x2="293.058" y2="562.24" gradientUnits="userSpaceOnUse">
<stop stop-color="#42307D"/>
<stop offset="1" stop-color="#7F56D9"/>
</linearGradient>
<linearGradient id="paint41_linear_493_1269" x1="258.554" y1="531.989" x2="264.834" y2="567.521" gradientUnits="userSpaceOnUse">
<stop stop-color="#42307D"/>
<stop offset="1" stop-color="#7F56D9"/>
</linearGradient>
<linearGradient id="paint42_linear_493_1269" x1="278.954" y1="549.397" x2="277.822" y2="556.547" gradientUnits="userSpaceOnUse">
<stop stop-color="#42307D"/>
<stop offset="1" stop-color="#7F56D9"/>
</linearGradient>
<linearGradient id="paint43_linear_493_1269" x1="786.999" y1="618.763" x2="967.933" y2="619.199" gradientUnits="userSpaceOnUse">
<stop stop-color="#42307D"/>
<stop offset="1" stop-color="#7F56D9"/>
</linearGradient>
<linearGradient id="paint44_linear_493_1269" x1="887.581" y1="641.3" x2="921.457" y2="652.624" gradientUnits="userSpaceOnUse">
<stop stop-color="#42307D"/>
<stop offset="1" stop-color="#7F56D9"/>
</linearGradient>
<linearGradient id="paint45_linear_493_1269" x1="956.685" y1="579.688" x2="1052.44" y2="588.668" gradientUnits="userSpaceOnUse">
<stop stop-color="#42307D"/>
<stop offset="1" stop-color="#7F56D9"/>
</linearGradient>
<linearGradient id="paint46_linear_493_1269" x1="323.811" y1="577.999" x2="285.174" y2="699.574" gradientUnits="userSpaceOnUse">
<stop stop-color="#42307D"/>
<stop offset="1" stop-color="#7F56D9"/>
</linearGradient>
<linearGradient id="paint47_linear_493_1269" x1="806.691" y1="321.494" x2="851.43" y2="306.585" gradientUnits="userSpaceOnUse">
<stop stop-color="#42307D"/>
<stop offset="1" stop-color="#7F56D9"/>
</linearGradient>
<linearGradient id="paint48_linear_493_1269" x1="716.395" y1="465.291" x2="793.094" y2="489.446" gradientUnits="userSpaceOnUse">
<stop stop-color="#42307D"/>
<stop offset="1" stop-color="#7F56D9"/>
</linearGradient>
<linearGradient id="paint49_linear_493_1269" x1="372.207" y1="374.632" x2="475.533" y2="307.765" gradientUnits="userSpaceOnUse">
<stop stop-color="#42307D"/>
<stop offset="1" stop-color="#7F56D9"/>
</linearGradient>
<linearGradient id="paint50_linear_493_1269" x1="827.111" y1="475" x2="871.08" y2="569.139" gradientUnits="userSpaceOnUse">
<stop stop-color="#42307D"/>
<stop offset="1" stop-color="#7F56D9"/>
</linearGradient>
<linearGradient id="paint51_linear_493_1269" x1="850.999" y1="406" x2="893.294" y2="454.617" gradientUnits="userSpaceOnUse">
<stop stop-color="#42307D"/>
<stop offset="1" stop-color="#7F56D9"/>
</linearGradient>
<linearGradient id="paint52_linear_493_1269" x1="157.404" y1="584.392" x2="221.835" y2="583.319" gradientUnits="userSpaceOnUse">
<stop stop-color="#42307D"/>
<stop offset="1" stop-color="#7F56D9"/>
</linearGradient>
<linearGradient id="paint53_linear_493_1269" x1="243" y1="260.567" x2="307.43" y2="259.495" gradientUnits="userSpaceOnUse">
<stop stop-color="#42307D"/>
<stop offset="1" stop-color="#7F56D9"/>
</linearGradient>
<linearGradient id="paint54_linear_493_1269" x1="68.9979" y1="589.999" x2="61.4776" y2="694.507" gradientUnits="userSpaceOnUse">
<stop stop-color="#42307D"/>
<stop offset="1" stop-color="#7F56D9"/>
</linearGradient>
<linearGradient id="paint55_linear_493_1269" x1="954.006" y1="309.583" x2="956.224" y2="437.693" gradientUnits="userSpaceOnUse">
<stop stop-color="#42307D"/>
<stop offset="1" stop-color="#7F56D9"/>
</linearGradient>
<linearGradient id="paint56_linear_493_1269" x1="190" y1="406" x2="214.118" y2="433.53" gradientUnits="userSpaceOnUse">
<stop stop-color="#42307D"/>
<stop offset="1" stop-color="#7F56D9"/>
</linearGradient>
<linearGradient id="paint57_linear_493_1269" x1="793" y1="437" x2="817.118" y2="464.53" gradientUnits="userSpaceOnUse">
<stop stop-color="#42307D"/>
<stop offset="1" stop-color="#7F56D9"/>
</linearGradient>
<linearGradient id="paint58_linear_493_1269" x1="895" y1="566" x2="919.118" y2="593.53" gradientUnits="userSpaceOnUse">
<stop stop-color="#42307D"/>
<stop offset="1" stop-color="#7F56D9"/>
</linearGradient>
<linearGradient id="paint59_linear_493_1269" x1="89.809" y1="513.935" x2="90.1729" y2="487.968" gradientUnits="userSpaceOnUse">
<stop stop-color="#42307D"/>
<stop offset="1" stop-color="#7F56D9"/>
</linearGradient>
<linearGradient id="paint60_linear_493_1269" x1="163.731" y1="574.163" x2="205.906" y2="435.404" gradientUnits="userSpaceOnUse">
<stop stop-color="#42307D"/>
<stop offset="1" stop-color="#7F56D9"/>
</linearGradient>
<linearGradient id="paint61_linear_493_1269" x1="140.794" y1="544.723" x2="142.435" y2="521.59" gradientUnits="userSpaceOnUse">
<stop stop-color="#42307D"/>
<stop offset="1" stop-color="#7F56D9"/>
</linearGradient>
<linearGradient id="paint62_linear_493_1269" x1="190.389" y1="543.386" x2="188.906" y2="525.574" gradientUnits="userSpaceOnUse">
<stop stop-color="#42307D"/>
<stop offset="1" stop-color="#7F56D9"/>
</linearGradient>
<linearGradient id="paint63_linear_493_1269" x1="205.621" y1="518.315" x2="209.916" y2="507.919" gradientUnits="userSpaceOnUse">
<stop stop-color="#42307D"/>
<stop offset="1" stop-color="#7F56D9"/>
</linearGradient>
<linearGradient id="paint64_linear_493_1269" x1="157.796" y1="460.461" x2="165.581" y2="433.359" gradientUnits="userSpaceOnUse">
<stop stop-color="#42307D"/>
<stop offset="1" stop-color="#7F56D9"/>
</linearGradient>
<linearGradient id="paint65_linear_493_1269" x1="469.999" y1="10.0577" x2="573.102" y2="85.6574" gradientUnits="userSpaceOnUse">
<stop stop-color="#42307D"/>
<stop offset="1" stop-color="#7F56D9"/>
</linearGradient>
</defs>
</svg>
