<svg width="24" height="25" viewBox="0 0 24 25" fill="none" xmlns="http://www.w3.org/2000/svg">
<path d="M22 16.2711C22 19.9111 19.83 22.0811 16.19 22.0811H15C14.45 22.0811 14 21.6311 14 21.0811V15.3111C14 15.0411 14.22 14.8111 14.49 14.8111L16.25 14.7811C16.39 14.7711 16.51 14.6711 16.54 14.5311L16.89 12.6211C16.92 12.4411 16.78 12.2711 16.59 12.2711L14.46 12.3011C14.18 12.3011 13.96 12.0811 13.95 11.8111L13.91 9.36105C13.91 9.20105 14.04 9.06107 14.21 9.06107L16.61 9.02106C16.78 9.02106 16.91 8.89107 16.91 8.72107L16.87 6.32104C16.87 6.15104 16.74 6.02106 16.57 6.02106L13.87 6.06107C12.21 6.09107 10.89 7.45105 10.92 9.11105L10.97 11.8611C10.98 12.1411 10.76 12.3611 10.48 12.3711L9.28 12.3911C9.11 12.3911 8.98001 12.521 8.98001 12.691L9.01001 14.5911C9.01001 14.7611 9.14 14.8911 9.31 14.8911L10.51 14.8711C10.79 14.8711 11.01 15.0911 11.02 15.3611L11.11 21.0611C11.12 21.6211 10.67 22.0811 10.11 22.0811H7.81C4.17 22.0811 2 19.911 2 16.261V7.89105C2 4.25105 4.17 2.08105 7.81 2.08105H16.19C19.83 2.08105 22 4.25105 22 7.89105V16.2711Z" fill="white"/>
</svg>
