<svg width="28" height="26" viewBox="0 0 28 26" fill="none" xmlns="http://www.w3.org/2000/svg">
<path d="M21.8912 16.0095C21.5459 16.3442 21.3872 16.8282 21.4659 17.3028L22.6512 23.8628C22.7512 24.4188 22.5165 24.9815 22.0512 25.3028C21.5952 25.6362 20.9885 25.6762 20.4912 25.4095L14.5859 22.3295C14.3805 22.2202 14.1525 22.1615 13.9192 22.1548H13.5579C13.4325 22.1735 13.3099 22.2135 13.1979 22.2748L7.29118 25.3695C6.99918 25.5162 6.66852 25.5682 6.34452 25.5162C5.55518 25.3668 5.02852 24.6148 5.15785 23.8215L6.34452 17.2615C6.42318 16.7828 6.26452 16.2962 5.91918 15.9562L1.10452 11.2895C0.70185 10.8988 0.56185 10.3122 0.74585 9.78284C0.924517 9.25484 1.38052 8.86951 1.93118 8.78284L8.55785 7.82151C9.06185 7.76951 9.50452 7.46284 9.73118 7.00951L12.6512 1.02284C12.7205 0.889512 12.8099 0.766845 12.9179 0.662845L13.0378 0.569512C13.1005 0.500178 13.1725 0.442845 13.2525 0.396178L13.3979 0.342845L13.6245 0.249512H14.1858C14.6872 0.301512 15.1285 0.601512 15.3592 1.04951L18.3179 7.00951C18.5312 7.44551 18.9459 7.74818 19.4245 7.82151L26.0512 8.78284C26.6112 8.86284 27.0792 9.24951 27.2645 9.78284C27.4392 10.3175 27.2885 10.9042 26.8779 11.2895L21.8912 16.0095Z" fill="#716D6A"/>
</svg>
