<svg width="24" height="25" viewBox="0 0 24 25" fill="none" xmlns="http://www.w3.org/2000/svg">
<path d="M16.19 2.08105H7.81C4.17 2.08105 2 4.25105 2 7.89105V16.2611C2 19.9111 4.17 22.0811 7.81 22.0811H16.18C19.82 22.0811 21.99 19.9111 21.99 16.2711V7.89105C22 4.25105 19.83 2.08105 16.19 2.08105ZM12 15.9611C9.86 15.9611 8.12 14.2211 8.12 12.0811C8.12 9.94105 9.86 8.20105 12 8.20105C14.14 8.20105 15.88 9.94105 15.88 12.0811C15.88 14.2211 14.14 15.9611 12 15.9611ZM17.92 6.96105C17.87 7.08105 17.8 7.19105 17.71 7.29105C17.61 7.38105 17.5 7.45105 17.38 7.50105C17.26 7.55105 17.13 7.58105 17 7.58105C16.73 7.58105 16.48 7.48105 16.29 7.29105C16.2 7.19105 16.13 7.08105 16.08 6.96105C16.03 6.84105 16 6.71105 16 6.58105C16 6.45105 16.03 6.32105 16.08 6.20105C16.13 6.07105 16.2 5.97105 16.29 5.87105C16.52 5.64105 16.87 5.53105 17.19 5.60105C17.26 5.61105 17.32 5.63105 17.38 5.66105C17.44 5.68105 17.5 5.71105 17.56 5.75105C17.61 5.78105 17.66 5.83105 17.71 5.87105C17.8 5.97105 17.87 6.07105 17.92 6.20105C17.97 6.32105 18 6.45105 18 6.58105C18 6.71105 17.97 6.84105 17.92 6.96105Z" fill="white"/>
</svg>
