<svg width="213" height="46" viewBox="0 0 213 46" fill="none" xmlns="http://www.w3.org/2000/svg">
<path d="M65.18 15.2H68.28V29H65.14L59.42 20.56V29H56.32V15.2H59.44L65.18 23.64V15.2ZM77.8703 18.8H80.7903V29H77.8703V27.98C77.0903 28.78 76.0303 29.24 74.7903 29.24C71.9903 29.24 69.8703 26.94 69.8703 23.9C69.8703 20.86 71.9903 18.56 74.7903 18.56C76.0303 18.56 77.0903 19.02 77.8703 19.82V18.8ZM75.3703 26.42C76.8103 26.42 77.8703 25.34 77.8703 23.9C77.8703 22.46 76.8103 21.38 75.3703 21.38C73.9503 21.38 72.8903 22.46 72.8903 23.9C72.8903 25.34 73.9503 26.42 75.3703 26.42ZM88.4861 18.64H88.9261V21.64H88.4861C86.7061 21.64 85.7261 22.66 85.7261 24.24V29H82.8061V18.8H85.7261V19.96C86.4461 19.12 87.3861 18.64 88.4861 18.64ZM94.8023 29.24C91.9023 29.24 89.9823 27.52 89.9823 24.92V18.8H92.9023V24.52C92.9023 25.66 93.6623 26.42 94.8023 26.42C95.9423 26.42 96.7023 25.66 96.7023 24.52V18.8H99.6223V24.92C99.6223 27.52 97.7223 29.24 94.8023 29.24ZM107.884 21.46H105.264V25.2C105.264 25.98 105.684 26.42 106.544 26.42C107.064 26.42 107.504 26.26 107.884 26.06V28.8C107.284 29.1 106.704 29.24 105.924 29.24C103.444 29.24 102.344 27.78 102.344 25.68V21.46H100.804V18.8H102.344V16.28H105.264V18.8H107.884V21.46ZM114.033 29.24C110.893 29.24 108.533 26.94 108.533 23.9C108.533 20.86 110.893 18.56 114.033 18.56C117.173 18.56 119.533 20.86 119.533 23.9C119.533 26.94 117.173 29.24 114.033 29.24ZM114.033 26.42C115.473 26.42 116.533 25.34 116.533 23.9C116.533 22.46 115.473 21.38 114.033 21.38C112.593 21.38 111.533 22.46 111.533 23.9C111.533 25.34 112.593 26.42 114.033 26.42ZM119.125 32.58V30.1H128.245V32.58H119.125ZM143.174 15.2H146.374L142.114 29H139.014L136.554 20L134.074 29H130.994L126.714 15.2H129.994L132.614 24.74L135.234 15.2H137.954L140.574 24.74L143.174 15.2ZM156.05 23.94C156.05 24.22 156.03 24.6 155.99 24.86H148.39C148.75 26 149.73 26.7 151.01 26.7C152.17 26.7 153.09 26.16 153.57 25.56L155.53 27.26C154.45 28.48 152.81 29.24 150.93 29.24C147.69 29.24 145.25 26.92 145.25 23.84C145.25 20.84 147.59 18.56 150.69 18.56C153.75 18.56 156.05 20.84 156.05 23.94ZM150.65 21.08C149.55 21.08 148.67 21.8 148.37 22.92H152.95C152.63 21.78 151.75 21.08 150.65 21.08ZM163.425 18.56C166.245 18.56 168.345 20.86 168.345 23.9C168.345 26.94 166.245 29.24 163.425 29.24C162.185 29.24 161.125 28.78 160.345 27.98V29H157.425V14.6H160.345V19.82C161.125 19.02 162.185 18.56 163.425 18.56ZM162.845 26.42C164.285 26.42 165.345 25.34 165.345 23.9C165.345 22.46 164.285 21.38 162.845 21.38C161.405 21.38 160.345 22.46 160.345 23.9C160.345 25.34 161.405 26.42 162.845 26.42ZM177.241 14.6H180.161V29H177.241V27.98C176.461 28.78 175.401 29.24 174.161 29.24C171.361 29.24 169.241 26.94 169.241 23.9C169.241 20.86 171.361 18.56 174.161 18.56C175.401 18.56 176.461 19.02 177.241 19.82V14.6ZM174.741 26.42C176.181 26.42 177.241 25.34 177.241 23.9C177.241 22.46 176.181 21.38 174.741 21.38C173.321 21.38 172.261 22.46 172.261 23.9C172.261 25.34 173.321 26.42 174.741 26.42ZM192.376 23.94C192.376 24.22 192.356 24.6 192.316 24.86H184.716C185.076 26 186.056 26.7 187.336 26.7C188.496 26.7 189.416 26.16 189.896 25.56L191.856 27.26C190.776 28.48 189.136 29.24 187.256 29.24C184.016 29.24 181.576 26.92 181.576 23.84C181.576 20.84 183.916 18.56 187.016 18.56C190.076 18.56 192.376 20.84 192.376 23.94ZM186.976 21.08C185.876 21.08 184.996 21.8 184.696 22.92H189.276C188.956 21.78 188.076 21.08 186.976 21.08ZM200.085 18.8H203.345L199.205 29H196.205L192.045 18.8H195.385L197.745 25.3L200.085 18.8ZM207.598 29.24C205.658 29.24 204.218 28.52 203.218 27.7L204.578 25.82C205.358 26.48 206.318 26.92 207.498 26.92C208.458 26.92 209.118 26.64 209.118 26.1C209.118 25.52 208.338 25.32 207.298 25.08C205.678 24.72 203.538 24.24 203.538 21.84C203.538 19.64 205.458 18.56 207.778 18.56C209.578 18.56 210.878 19.2 211.838 19.9L210.478 21.78C209.718 21.26 208.878 20.88 207.878 20.88C207.098 20.88 206.458 21.1 206.458 21.62C206.458 22.2 207.238 22.38 208.278 22.6C209.878 22.94 212.038 23.44 212.038 25.82C212.038 28.06 210.078 29.24 207.598 29.24Z" fill="white"/>
<rect width="46" height="46" rx="23" fill="#FD853A"/>
<path d="M28.1893 36L28.1909 35.9967C28.4479 36.0017 28.7044 35.9737 28.9543 35.9133C30.4143 35.5717 31.6493 34.2967 31.9426 32.92L37.7543 11.0933L33.1343 11.07L29.3243 25.35L19.0243 11.0217L19.0176 11.0283L19.0226 11.0117L17.3209 11V11.0017C17.0636 10.9977 16.8067 11.0251 16.5559 11.0833C15.0976 11.4267 13.8626 12.7017 13.5676 14.0767L7.75427 35.9083L12.3759 35.9283L16.1843 21.6483L26.4843 35.9783H26.4893L28.1893 36ZM17.2009 17.8433L18.0059 14.8267L28.3076 29.1583L27.5026 32.175L17.2026 17.8417L17.2009 17.8433Z" fill="white"/>
</svg>
