<svg width="28" height="26" viewBox="0 0 28 26" fill="none" xmlns="http://www.w3.org/2000/svg">
<path d="M21.8912 16.0933C21.5459 16.428 21.3872 16.912 21.4659 17.3867L22.6512 23.9467C22.7512 24.5027 22.5165 25.0653 22.0512 25.3867C21.5952 25.72 20.9885 25.76 20.4912 25.4933L14.5858 22.4133C14.3805 22.304 14.1525 22.2453 13.9192 22.2387H13.5578C13.4325 22.2573 13.3099 22.2973 13.1979 22.3587L7.29118 25.4533C6.99918 25.6 6.66852 25.652 6.34452 25.6C5.55518 25.4507 5.02852 24.6987 5.15785 23.9053L6.34452 17.3453C6.42318 16.8667 6.26452 16.38 5.91918 16.04L1.10452 11.3733C0.70185 10.9827 0.56185 10.396 0.74585 9.86668C0.924517 9.33868 1.38052 8.95334 1.93118 8.86668L8.55785 7.90534C9.06185 7.85334 9.50452 7.54668 9.73118 7.09334L12.6512 1.10668C12.7205 0.973343 12.8099 0.850677 12.9179 0.746677L13.0378 0.653343C13.1005 0.58401 13.1725 0.526677 13.2525 0.48001L13.3979 0.426677L13.6245 0.333344H14.1859C14.6872 0.385344 15.1285 0.685344 15.3592 1.13334L18.3179 7.09334C18.5312 7.52934 18.9459 7.83201 19.4245 7.90534L26.0512 8.86668C26.6112 8.94668 27.0792 9.33334 27.2645 9.86668C27.4392 10.4013 27.2885 10.988 26.8779 11.3733L21.8912 16.0933Z" fill="#FD853A"/>
</svg>
